<?xml version="1.0" encoding="utf-8"?>
<!-- Generator: Adobe Illustrator 14.0.0, SVG Export Plug-In . SVG Version: 6.00 Build 43363)  -->
<!DOCTYPE svg PUBLIC "-//W3C//DTD SVG 1.1//EN" "http://www.w3.org/Graphics/SVG/1.1/DTD/svg11.dtd">
<svg version="1.1" id="Layer_1" xmlns="http://www.w3.org/2000/svg" xmlns:xlink="http://www.w3.org/1999/xlink" x="0px" y="0px"
	 width="280px" height="58.938px" viewBox="-0.511 0 280 58.938" enable-background="new -0.511 0 280 58.938" xml:space="preserve"
	>
<g>
	<g id="border">
		<g>
			<path fill="#FFFFFF" d="M55.198,58.938H2.57c-1.699,0-3.081-1.416-3.081-3.156V3.155C-0.511,1.444,0.9,0,2.57,0h52.628
				c1.739,0,3.154,1.415,3.154,3.154v52.627C58.352,57.522,56.937,58.938,55.198,58.938L55.198,58.938z M2.57,1.7
				c-0.736,0-1.381,0.679-1.381,1.454v52.627c0,0.814,0.606,1.457,1.381,1.457h52.628c0.788,0,1.454-0.668,1.454-1.457V3.155
				c0-0.788-0.666-1.454-1.454-1.454H2.57L2.57,1.7z"/>
		</g>
		<path fill="none" stroke="#FFFFFF" stroke-width="1.7" d="M57.502,55.781c0,1.227-1.008,2.307-2.304,2.307H2.57
			c-1.223,0-2.231-1.01-2.231-2.307V3.155c0-1.224,1.008-2.304,2.231-2.304h52.628c1.224,0,2.304,1.008,2.304,2.305V55.781z"/>
	</g>
	<g id="communicator">
		<g id="Layer_1_1_">
			<g id="Layer_x0020_1">
				<polygon fill="#FFFFFF" points="13.227,30.156 45.339,30.156 45.339,28.859 13.227,28.859 				"/>
				<polygon fill="#FFFFFF" points="19.851,7.546 24.315,7.546 24.315,13.666 33.531,13.666 33.531,7.546 37.995,7.546 
					37.995,23.891 33.531,23.891 33.531,16.834 24.315,16.834 24.315,23.891 19.851,23.891 				"/>
				<path fill="#FFFFFF" d="M37.347,45.203c-0.36,3.672-3.384,6.625-8.064,6.625c-5.328,0-8.712-3.314-8.712-8.568
					c0-3.744,2.304-8.568,8.712-8.568c3.6,0,7.416,1.656,7.92,5.904h-1.728c-0.504-3.097-3.312-4.394-6.264-4.394
					c-4.032,0-6.912,2.229-6.912,7.058c0,3.672,1.872,7.057,6.912,7.057c3.888,0,5.832-1.941,6.408-5.109h1.728V45.203z"/>
				<polygon fill="#FFFFFF" points="84.483,9.851 86.571,9.851 86.571,26.914 84.483,26.914 84.483,19.209 75.555,19.209 
					75.555,26.914 73.395,26.914 73.395,9.851 75.555,9.851 75.555,17.195 84.483,17.195 				"/>
				<path fill="#FFFFFF" d="M100.683,25.115c3.456,0,6.768-2.736,6.768-6.769c0-4.033-3.24-6.769-6.768-6.769
					c-3.456,0-6.768,2.735-6.768,6.769C93.915,22.377,97.155,25.115,100.683,25.115z M100.683,9.563c5.76,0,9,4.607,9,8.784
					c0,4.248-3.24,8.782-9,8.782c-5.76,0-9-4.534-9-8.782S94.923,9.563,100.683,9.563z"/>
				<path fill="#FFFFFF" d="M123.219,25.115c3.457,0,6.769-2.736,6.769-6.769c0-4.033-3.239-6.769-6.769-6.769
					c-3.456,0-6.768,2.735-6.768,6.769C116.451,22.377,119.691,25.115,123.219,25.115z M123.219,9.563c5.759,0,9,4.607,9,8.784
					c0,4.248-3.239,8.782-9,8.782c-5.76,0-9-4.534-9-8.782S117.459,9.563,123.219,9.563z"/>
				<path fill="#FFFFFF" d="M142.012,19.209c2.593,0,4.031-1.224,4.031-3.742c0-2.448-1.513-3.744-4.031-3.744h-2.089v7.486H142.012
					z M137.764,9.851h4.681c3.601,0,5.761,2.809,5.761,5.616c0,2.88-2.16,5.615-5.761,5.615h-2.521v5.832h-2.159L137.764,9.851
					L137.764,9.851z"/>
				<path fill="#FFFFFF" d="M161.307,14.746c-0.286-2.018-1.438-3.239-3.239-3.239c-2.446,0-3.097,1.584-3.097,2.735
					c0,1.295,0.793,2.088,2.521,2.734l2.16,0.792c2.735,1.008,3.961,2.592,3.961,4.681c0,2.735-2.16,4.752-5.474,4.752
					c-3.096,0-5.256-1.656-5.543-5.039h2.159c0.216,1.871,1.152,3.168,3.527,3.168c1.873,0,3.24-1.226,3.24-2.664
					c0-1.297-1.08-2.159-2.664-2.81l-2.16-0.862c-2.521-1.009-3.815-2.449-3.815-4.682c0-2.952,2.448-4.68,5.256-4.68
					c2.81,0,5.041,1.655,5.257,5.111h-2.017L161.307,14.746L161.307,14.746z"/>
				<path fill="#FFFFFF" d="M84.411,37.428c-1.08-0.937-2.448-1.513-3.816-1.513c-3.096,0-5.904,2.521-5.904,5.903
					c0,3.453,2.88,5.902,5.904,5.902c1.656,0,2.952-0.576,3.96-1.584l1.224,1.365c-1.368,1.227-3.312,2.018-5.184,2.018
					c-5.04,0-7.92-4.027-7.92-7.701s2.88-7.704,7.92-7.704c2.016,0,3.888,0.793,5.112,1.873l-1.296,1.364V37.428z"/>
				<path fill="#FFFFFF" d="M98.667,47.725c3.024,0,5.904-2.377,5.904-5.902c0-3.527-2.88-5.904-5.904-5.904
					s-5.904,2.377-5.904,5.904C92.763,45.348,95.643,47.725,98.667,47.725z M98.667,34.115c5.04,0,7.92,4.03,7.92,7.704
					s-2.88,7.701-7.92,7.701s-7.92-4.027-7.92-7.701C90.747,38.147,93.555,34.115,98.667,34.115z"/>
				<polygon fill="#FFFFFF" points="126.53,34.404 128.403,34.404 128.403,49.309 126.53,49.309 126.53,38.221 126.459,38.221 
					120.483,49.451 114.435,38.221 114.435,38.221 114.435,49.309 112.491,49.309 112.491,34.404 114.435,34.404 120.483,45.637 
									"/>
				<polygon fill="#FFFFFF" points="148.923,34.404 150.795,34.404 150.795,49.309 148.923,49.309 148.923,38.221 148.853,38.221 
					142.875,49.451 136.827,38.221 136.755,38.221 136.755,49.309 134.883,49.309 134.883,34.404 136.755,34.404 142.875,45.637 
									"/>
				<path fill="#FFFFFF" d="M157.202,34.404h1.873v8.929c0,2.447,1.367,4.463,3.959,4.463c2.593,0,3.961-2.016,3.961-4.463v-8.929
					h1.871v9.505c0,3.236-2.447,5.611-5.903,5.611c-3.384,0-5.832-2.443-5.832-5.611v-9.505H157.202z"/>
				<polygon fill="#FFFFFF" points="185.068,34.404 186.941,34.404 186.941,49.309 185.138,49.309 177.148,37.786 177.148,37.786 
					177.148,49.309 175.277,49.309 175.277,34.404 177.003,34.404 184.994,45.924 185.068,45.924 				"/>
				<polygon fill="#FFFFFF" points="193.277,49.309 195.148,49.309 195.148,34.404 193.277,34.404 				"/>
				<path fill="#FFFFFF" d="M212.787,37.428c-1.08-0.937-2.449-1.513-3.816-1.513c-3.096,0-5.902,2.521-5.902,5.903
					c0,3.453,2.881,5.902,5.902,5.902c1.656,0,2.951-0.576,3.963-1.584l1.223,1.365c-1.365,1.227-3.313,2.018-5.186,2.018
					c-5.037,0-7.92-4.027-7.92-7.701s2.883-7.704,7.92-7.704c1.943,0,3.891,0.793,5.111,1.873l-1.295,1.364V37.428L212.787,37.428z"
					/>
				<path fill="#FFFFFF" d="M225.386,36.85l-2.809,7.348h5.615L225.386,36.85z M228.843,45.78h-6.912l-1.367,3.455h-2.088
					l6.049-14.903h1.654l6.049,14.903h-2.09l-1.365-3.455H228.843z"/>
				<polygon fill="#FFFFFF" points="238.347,36.13 234.605,36.13 234.605,34.404 243.962,34.404 243.962,36.13 240.218,36.13 
					240.218,49.309 238.347,49.309 				"/>
				<path fill="#FFFFFF" d="M254.833,47.725c3.023,0,5.904-2.377,5.904-5.902c0-3.527-2.881-5.904-5.904-5.904
					c-3.021,0-5.902,2.377-5.902,5.904C248.931,45.348,251.812,47.725,254.833,47.725z M254.833,34.115
					c5.041,0,7.92,4.03,7.92,7.704s-2.879,7.701-7.92,7.701c-5.039,0-7.92-4.027-7.92-7.701
					C246.914,38.147,249.794,34.115,254.833,34.115z"/>
				<path fill="#FFFFFF" d="M270.605,41.748c0.285,0,0.504,0,1.652,0c2.881,0,3.891-1.229,3.891-2.881
					c0-1.729-1.227-2.88-3.168-2.88h-2.375V41.748L270.605,41.748z M270.605,42.899v6.338h-1.873V34.331h4.318
					c2.879,0,4.969,1.656,4.969,4.536c0,2.664-2.09,4.316-4.535,4.465l5.832,5.977h-2.664l-6.047-6.336V42.899L270.605,42.899z"/>
			</g>
		</g>
		<g id="Layer_2" display="none">
			<g id="Layer_x0020_1_1_" display="inline">
				<polygon fill="#606062" points="117.472,26.124 119.632,26.124 119.632,43.188 117.472,43.188 117.472,35.484 108.545,35.484 
					108.545,43.188 106.385,43.188 106.385,26.124 108.545,26.124 108.545,33.469 117.472,33.469 				"/>
				<path fill="#606062" d="M133.671,41.389c3.455,0,6.767-2.736,6.767-6.77s-3.239-6.769-6.767-6.769
					c-3.456,0-6.768,2.735-6.768,6.769S130.143,41.389,133.671,41.389z M133.671,25.836c5.759,0,8.999,4.536,8.999,8.783
					c0,4.248-3.24,8.781-8.999,8.781c-5.76,0-8.999-4.533-8.999-8.781C124.672,30.372,127.911,25.836,133.671,25.836z"/>
				<path fill="#606062" d="M156.204,41.389c3.455,0,6.768-2.736,6.768-6.77s-3.238-6.769-6.768-6.769
					c-3.455,0-6.767,2.735-6.767,6.769S152.677,41.389,156.204,41.389z M156.204,25.836c5.76,0,9,4.536,9,8.783
					c0,4.248-3.24,8.781-9,8.781c-5.759,0-8.999-4.533-8.999-8.781C147.205,30.372,150.445,25.836,156.204,25.836z"/>
				<path fill="#606062" d="M174.995,35.484c2.592,0,4.03-1.225,4.03-3.743c0-2.448-1.513-3.744-4.03-3.744h-2.088v7.485h2.088
					V35.484z M170.747,26.124h4.68c3.6,0,5.76,2.809,5.76,5.615c0,2.88-2.16,5.614-5.76,5.614h-2.52v5.832h-2.16V26.124
					L170.747,26.124z"/>
				<path fill="#606062" d="M194.289,31.019c-0.289-2.018-1.441-3.238-3.24-3.238c-2.445,0-3.098,1.584-3.098,2.734
					c0,1.297,0.793,2.088,2.521,2.734l2.158,0.792c2.734,1.011,3.961,2.593,3.961,4.682c0,2.734-2.16,4.752-5.473,4.752
					c-3.098,0-5.256-1.656-5.545-5.041h2.16c0.215,1.873,1.148,3.168,3.525,3.168c1.871,0,3.238-1.227,3.238-2.664
					c0-1.296-1.08-2.161-2.664-2.811l-2.158-0.862c-2.52-1.008-3.813-2.447-3.813-4.682c0-2.951,2.447-4.681,5.256-4.681
					s5.039,1.656,5.256,5.11h-2.018h-0.07L194.289,31.019L194.289,31.019z"/>
				<polygon fill="#A9ABAE" points="106.169,50.676 113.872,50.676 113.872,52.403 108.041,52.403 108.041,57.155 113.872,57.155 
					113.872,58.883 108.041,58.883 108.041,63.778 113.872,63.778 113.872,65.578 106.169,65.578 				"/>
				<polygon fill="#A9ABAE" points="128.919,50.676 131.223,50.676 126.255,57.946 131.439,65.578 129.064,65.578 125.104,59.53 
					121.144,65.578 118.768,65.578 123.951,57.946 118.985,50.676 121.288,50.676 125.104,56.434 				"/>
				<path fill="#A9ABAE" d="M148.069,53.699c-1.08-0.938-2.376-1.514-3.815-1.514c-3.096,0-5.903,2.521-5.903,5.9
					c0,3.455,2.879,5.904,5.903,5.904c1.655,0,2.951-0.576,3.959-1.584l1.225,1.363c-1.368,1.229-3.313,2.02-5.184,2.02
					c-5.04,0-7.92-4.029-7.92-7.703c0-3.672,2.88-7.701,7.92-7.701c1.943,0,3.888,0.793,5.111,1.871l-1.296,1.367V53.699z"/>
				<polygon fill="#A9ABAE" points="164.556,50.676 166.428,50.676 166.428,65.578 164.556,65.578 164.556,58.811 156.78,58.811 
					156.78,65.578 154.837,65.578 154.837,50.676 156.78,50.676 156.78,57.08 164.556,57.08 				"/>
				<path fill="#A9ABAE" d="M178.666,53.121l-2.808,7.346h5.612L178.666,53.121z M182.121,62.051h-6.91l-1.368,3.453h-2.088
					l6.048-14.9h1.654l6.049,14.9h-2.088l-1.369-3.453H182.121z"/>
				<polygon fill="#A9ABAE" points="200.695,50.676 202.568,50.676 202.568,65.578 200.769,65.578 192.777,54.059 192.777,54.059 
					192.777,65.578 190.904,65.578 190.904,50.676 192.632,50.676 200.623,62.194 200.695,62.194 				"/>
				<path fill="#A9ABAE" d="M216.822,57.371h7.486c0,5.326-3.674,8.422-7.85,8.422c-5.039,0-7.918-4.031-7.918-7.703
					s2.879-7.703,7.918-7.703c1.729,0,3.457,0.504,5.256,2.016l-1.227,1.441c-1.227-1.152-2.732-1.656-4.029-1.656
					c-3.098,0-5.902,2.521-5.902,5.902c0,3.455,2.881,5.904,5.902,5.904c2.664,0,5.186-1.803,5.832-4.896h-5.475v-1.799v0.072
					H216.822L216.822,57.371z"/>
				<polygon fill="#A9ABAE" points="230.283,50.676 237.988,50.676 237.988,52.403 232.156,52.403 232.156,57.155 237.988,57.155 
					237.988,58.883 232.156,58.883 232.156,63.778 237.988,63.778 237.988,65.578 230.283,65.578 				"/>
				<path fill="#009693" d="M57.502,72.127c0,1.227-1.008,2.307-2.304,2.307H2.57c-1.223,0-2.231-1.01-2.231-2.307V19.5
					c0-1.225,1.008-2.304,2.231-2.304h52.628c1.224,0,2.304,1.008,2.304,2.304V72.127z"/>
				
					<linearGradient id="SVGID_1_" gradientUnits="userSpaceOnUse" x1="10367.5449" y1="-25531.498" x2="10903.2939" y2="-25825.7188" gradientTransform="matrix(0.072 0 0 -0.072 -725.8463 -1811.765)">
					<stop  offset="0" style="stop-color:#006D6A"/>
					<stop  offset="1" style="stop-color:#009693"/>
				</linearGradient>
				<polygon fill="url(#SVGID_1_)" points="57.502,54.635 19.85,40.164 19.85,40.164 19.85,23.821 24.313,23.821 24.313,23.821 
					33.528,29.94 33.528,23.821 37.991,23.821 37.991,23.821 57.502,32.676 				"/>
				
					<linearGradient id="SVGID_2_" gradientUnits="userSpaceOnUse" x1="10389.9238" y1="-25891.0918" x2="10875.6348" y2="-26204.7793" gradientTransform="matrix(0.072 0 0 -0.072 -725.8463 -1811.765)">
					<stop  offset="0" style="stop-color:#006D6A"/>
					<stop  offset="1" style="stop-color:#009693"/>
				</linearGradient>
				<path fill="url(#SVGID_2_)" d="M55.27,74.434H41.016l-18.143-6.697V51.395H35.76h0.144l21.599,8.854v11.953
					c0,1.225-1.008,2.303-2.304,2.303L55.27,74.434z"/>
				<polygon fill="#FEFEFE" points="19.85,23.821 24.313,23.821 24.313,29.94 33.528,29.94 33.528,23.821 37.991,23.821 
					37.991,40.164 33.528,40.164 33.528,33.107 24.313,33.107 24.313,40.164 19.85,40.164 				"/>
				<polygon fill="#FEFEFE" points="13.226,46.428 45.335,46.428 45.335,45.131 13.226,45.131 				"/>
				<polygon fill="#FEFEFE" points="22.873,51.323 35.903,51.323 35.903,52.906 24.601,52.906 24.601,58.449 35.472,58.449 
					35.472,60.033 24.601,60.033 24.601,66.155 36.048,66.155 36.048,67.737 22.873,67.737 				"/>
				<polygon fill="#D2D3D5" points="81.26,67.594 83.131,67.594 83.131,24.109 81.26,24.109 				"/>
			</g>
		</g>
		<g id="Layer_3" display="none">
			<g id="Layer_x0020_1_2_" display="inline">
				<polygon fill="#606062" points="117.472,26.124 119.632,26.124 119.632,43.188 117.472,43.188 117.472,35.484 108.545,35.484 
					108.545,43.188 106.385,43.188 106.385,26.124 108.545,26.124 108.545,33.469 117.472,33.469 				"/>
				<path fill="#606062" d="M133.671,41.389c3.455,0,6.767-2.736,6.767-6.77s-3.239-6.769-6.767-6.769
					c-3.456,0-6.768,2.735-6.768,6.769S130.143,41.389,133.671,41.389z M133.671,25.836c5.759,0,8.999,4.536,8.999,8.783
					c0,4.248-3.24,8.781-8.999,8.781c-5.76,0-9-4.605-9-8.781C124.671,30.371,127.911,25.836,133.671,25.836z"/>
				<path fill="#606062" d="M156.204,41.389c3.455,0,6.768-2.736,6.768-6.77s-3.238-6.769-6.768-6.769
					c-3.455,0-6.768,2.735-6.768,6.769S152.677,41.389,156.204,41.389z M156.204,25.836c5.76,0,8.998,4.536,8.998,8.783
					c0,4.248-3.238,8.781-8.998,8.781c-5.759,0-8.999-4.605-8.999-8.781C147.205,30.371,150.445,25.836,156.204,25.836z"/>
				<path fill="#606062" d="M174.993,35.484c2.593,0,4.032-1.225,4.032-3.743c0-2.448-1.513-3.744-4.032-3.744h-2.086v7.485h2.086
					V35.484z M170.747,26.124h4.68c3.6,0,5.76,2.809,5.76,5.615c0,2.88-2.16,5.614-5.76,5.614h-2.52v5.832h-2.16V26.124
					L170.747,26.124z"/>
				<path fill="#606062" d="M194.289,31.019c-0.289-2.018-1.441-3.238-3.24-3.238c-2.445,0-3.098,1.584-3.098,2.734
					c0,1.297,0.793,2.088,2.521,2.734l2.158,0.792c2.734,1.011,3.961,2.593,3.961,4.682c0,2.734-2.16,4.752-5.473,4.752
					c-3.098,0-5.258-1.656-5.545-5.041h2.16c0.215,1.873,1.148,3.168,3.523,3.168c1.873,0,3.168-1.227,3.168-2.664
					c0-1.296-1.078-2.161-2.662-2.811l-2.158-0.862c-2.521-1.008-3.814-2.447-3.814-4.682c0-2.951,2.445-4.681,5.254-4.681
					c2.811,0,5.041,1.656,5.256,5.11h-2.016L194.289,31.019L194.289,31.019z"/>
				<path fill="#A9ABAE" d="M109.913,58.811c2.231,0,3.527-1.08,3.527-3.24s-1.296-3.238-3.527-3.238h-1.872v6.553h1.872V58.811z
					 M106.169,50.604h4.104c3.168,0,5.04,2.447,5.04,4.895c0,2.521-1.872,4.896-5.04,4.896h-2.231v5.109h-1.872L106.169,50.604
					L106.169,50.604z"/>
				<path fill="#A9ABAE" d="M120.856,50.676h1.872v8.926c0,2.449,1.368,4.465,3.96,4.465c2.592,0,3.959-2.016,3.959-4.465v-8.926
					h1.872v9.502c0,3.238-2.448,5.615-5.903,5.615c-3.384,0-5.832-2.447-5.832-5.615v-9.502H120.856z"/>
				<path fill="#A9ABAE" d="M143.75,63.92c2.52,0,3.239-1.223,3.239-2.52c0-1.15-0.72-2.592-3.239-2.592h-2.88v5.109L143.75,63.92
					L143.75,63.92z M143.245,57.155c1.513,0,2.736-0.863,2.736-2.307c0-0.791-0.288-1.367-0.72-1.799
					c-0.504-0.434-1.225-0.723-2.376-0.723h-2.016v4.82h2.376L143.245,57.155L143.245,57.155z M138.998,50.676h3.888
					c1.439,0,2.447,0.215,3.384,0.861c0.936,0.646,1.584,1.73,1.584,3.238c0,1.367-0.721,2.375-1.872,2.951v0.072
					c1.872,0.285,2.88,1.801,2.88,3.6c0,2.447-2.016,4.248-4.464,4.248h-5.399v-14.9L138.998,50.676L138.998,50.676z"/>
				<polygon fill="#A9ABAE" points="154.837,50.676 156.78,50.676 156.78,63.778 161.964,63.778 161.964,65.578 154.837,65.578 				
					"/>
				<polygon fill="#A9ABAE" points="167.362,65.578 169.235,65.578 169.235,50.676 167.362,50.676 				"/>
				<path fill="#A9ABAE" d="M182.697,54.922c-0.289-1.729-1.297-2.809-2.881-2.809c-2.087,0-2.663,1.365-2.663,2.445
					c0,1.15,0.721,1.801,2.159,2.377l1.873,0.721c2.375,0.863,3.453,2.305,3.453,4.105c0,2.445-1.941,4.176-4.752,4.176
					c-2.733,0-4.604-1.439-4.896-4.395h1.873c0.145,1.656,1.008,2.734,3.097,2.734c1.654,0,2.809-1.01,2.809-2.375
					c0-1.152-0.938-1.871-2.305-2.447l-1.871-0.723c-2.232-0.861-3.313-2.158-3.313-4.105c0-2.592,2.16-4.104,4.604-4.104
					c2.447,0,4.395,1.439,4.607,4.465h-1.73L182.697,54.922z"/>
				<polygon fill="#A9ABAE" points="200.119,50.676 201.99,50.676 201.99,65.578 200.119,65.578 200.119,58.811 192.343,58.811 
					192.343,65.578 190.472,65.578 190.472,50.676 192.343,50.676 192.343,57.08 200.119,57.08 				"/>
				<path fill="#C3CE36" d="M57.502,72.127c0,1.227-1.009,2.307-2.305,2.307H2.57c-1.223,0-2.231-1.01-2.231-2.307V19.5
					c0-1.225,1.008-2.304,2.231-2.304h52.627c1.225,0,2.305,1.008,2.305,2.304V72.127z"/>
				
					<linearGradient id="SVGID_3_" gradientUnits="userSpaceOnUse" x1="10365.6777" y1="-25558.9199" x2="10903.4648" y2="-25782.9941" gradientTransform="matrix(0.072 0 0 -0.072 -725.8463 -1811.765)">
					<stop  offset="0" style="stop-color:#838E2E"/>
					<stop  offset="1" style="stop-color:#C3CE36"/>
				</linearGradient>
				<polygon fill="url(#SVGID_3_)" points="57.502,54.635 19.849,40.164 19.849,40.164 19.849,23.821 24.313,23.821 24.313,23.821 
					33.527,29.94 33.527,23.821 37.991,23.821 37.991,23.821 57.502,32.676 				"/>
				
					<linearGradient id="SVGID_4_" gradientUnits="userSpaceOnUse" x1="10382.6582" y1="-25953.877" x2="10877.457" y2="-26160.0449" gradientTransform="matrix(0.072 0 0 -0.072 -725.8463 -1811.765)">
					<stop  offset="0" style="stop-color:#838E2E"/>
					<stop  offset="1" style="stop-color:#C3CE36"/>
				</linearGradient>
				<path fill="url(#SVGID_4_)" d="M55.27,74.434H38.064l-15.335-6.697l0,0V51.395h8.855c0.647,0,1.296,0.072,1.872,0.289h0.071
					l24.118,9.502v11.088c0,1.225-1.008,2.305-2.304,2.305L55.27,74.434z"/>
				<polygon fill="#FEFEFE" points="19.849,23.821 24.313,23.821 24.313,29.94 33.527,29.94 33.527,23.821 37.991,23.821 
					37.991,40.164 33.527,40.164 33.527,33.107 24.313,33.107 24.313,40.164 19.849,40.164 				"/>
				<polygon fill="#FEFEFE" points="13.226,46.428 45.335,46.428 45.335,45.131 13.226,45.131 				"/>
				<path fill="#FEFEFE" d="M24.385,59.315h6.551c2.809,0,3.672-1.297,3.672-3.24c0-2.447-1.367-3.168-3.312-3.168h-6.911v6.336
					V59.315z M22.657,51.395h8.854c2.52,0,4.896,1.297,4.896,4.752c0,3.096-2.016,4.752-5.688,4.752h-6.335v6.91h-1.728V51.467
					L22.657,51.395L22.657,51.395z"/>
				<polygon fill="#D2D3D5" points="81.26,67.594 83.131,67.594 83.131,24.109 81.26,24.109 				"/>
			</g>
		</g>
		<g id="Layer_4" display="none">
			<g id="Layer_x0020_1_3_" display="inline">
				<polygon fill="#606062" points="117.401,26.124 119.56,26.124 119.56,43.188 117.401,43.188 117.401,35.484 108.545,35.484 
					108.545,43.188 106.385,43.188 106.385,26.124 108.545,26.124 108.545,33.469 117.401,33.469 				"/>
				<path fill="#606062" d="M133.671,41.389c3.455,0,6.768-2.736,6.768-6.77s-3.24-6.769-6.768-6.769
					c-3.456,0-6.768,2.735-6.768,6.769S130.143,41.389,133.671,41.389z M133.671,25.836c5.759,0,8.999,4.536,8.999,8.783
					c0,4.176-3.24,8.781-8.999,8.781c-5.76,0-8.999-4.533-8.999-8.781C124.672,30.372,127.911,25.836,133.671,25.836z"/>
				<path fill="#606062" d="M156.205,41.389c3.454,0,6.767-2.736,6.767-6.77s-3.238-6.769-6.767-6.769
					c-3.456,0-6.768,2.735-6.768,6.769S152.677,41.389,156.205,41.389z M156.205,25.836c5.759,0,8.999,4.536,8.999,8.783
					c0,4.176-3.24,8.781-8.999,8.781c-5.76,0-9-4.533-9-8.781C147.205,30.372,150.445,25.836,156.205,25.836z"/>
				<path fill="#606062" d="M174.995,35.484c2.592,0,4.03-1.225,4.03-3.743c0-2.448-1.513-3.744-4.03-3.744h-2.088v7.485h2.088
					V35.484z M170.747,26.124h4.68c3.6,0,5.76,2.809,5.76,5.615c0,2.88-2.16,5.614-5.76,5.614h-2.52v5.832h-2.16V26.124
					L170.747,26.124z"/>
				<path fill="#606062" d="M194.289,31.019c-0.289-2.018-1.438-3.238-3.24-3.238c-2.445,0-3.096,1.584-3.096,2.734
					c0,1.297,0.791,2.088,2.52,2.734l2.16,0.792c2.734,1.011,3.959,2.593,3.959,4.682c0,2.734-2.158,4.752-5.471,4.752
					c-3.098,0-5.256-1.656-5.543-5.041h2.158c0.217,1.873,1.15,3.168,3.525,3.168c1.871,0,3.24-1.15,3.24-2.664
					c0-1.296-1.08-2.161-2.664-2.811l-2.16-0.862c-2.521-1.008-3.813-2.447-3.813-4.682c0-2.951,2.447-4.681,5.256-4.681
					c2.807,0,5.039,1.656,5.256,5.11h-2.018h-0.07V31.019L194.289,31.019z"/>
				<polygon fill="#A9ABAE" points="115.673,50.676 117.689,50.676 112.145,65.578 110.633,65.578 105.089,50.676 107.106,50.676 
					111.353,62.555 111.425,62.555 				"/>
				<polygon fill="#A9ABAE" points="123.016,65.578 124.888,65.578 124.888,50.676 123.016,50.676 				"/>
				<path fill="#A9ABAE" d="M138.351,54.922c-0.288-1.801-1.296-2.809-2.88-2.809c-2.088,0-2.664,1.365-2.664,2.375
					c0,1.15,0.72,1.801,2.16,2.377l1.872,0.719c2.375,0.865,3.455,2.307,3.455,4.105c0,2.377-1.943,4.176-4.751,4.176
					c-2.736,0-4.608-1.438-4.896-4.391h1.871c0.145,1.652,1.008,2.732,3.096,2.732c1.656,0,2.808-1.008,2.808-2.377
					c0-1.148-0.936-1.871-2.304-2.443l-1.871-0.725c-2.232-0.859-3.313-2.158-3.313-4.104c0-2.592,2.16-4.104,4.608-4.104
					c2.447,0,4.392,1.438,4.607,4.463L138.351,54.922L138.351,54.922z"/>
				<path fill="#A9ABAE" d="M146.054,50.676h1.872v8.926c0,2.449,1.367,4.465,3.959,4.465c2.592,0,3.96-2.016,3.96-4.465v-8.926
					h1.872v9.502c0,3.238-2.448,5.615-5.903,5.615c-3.384,0-5.832-2.447-5.832-5.615v-9.502H146.054z"/>
				<path fill="#A9ABAE" d="M169.884,53.121l-2.809,7.346h5.615L169.884,53.121z M173.339,62.051h-6.911l-1.368,3.453h-2.088
					l6.049-14.9h1.654l6.048,14.9h-2.088l-1.368-3.453H173.339z"/>
				<polygon fill="#A9ABAE" points="182.193,50.676 184.068,50.676 184.068,63.778 189.32,63.778 189.32,65.578 182.193,65.578 				
					"/>
				<polygon fill="#A9ABAE" points="194.72,65.578 196.591,65.578 196.591,50.676 194.72,50.676 				"/>
				<polygon fill="#A9ABAE" points="210.126,52.403 202.71,52.403 202.71,50.676 213.365,50.676 205.234,63.778 213.007,63.778 
					213.007,65.578 201.99,65.578 				"/>
				<polygon fill="#A9ABAE" points="218.91,50.676 226.613,50.676 226.613,52.403 220.781,52.403 220.781,57.155 226.613,57.155 
					226.613,58.883 220.781,58.883 220.781,63.778 226.613,63.778 226.613,65.578 218.91,65.578 				"/>
				<path fill="#55ABDF" d="M57.502,72.127c0,1.227-1.008,2.307-2.304,2.307H2.571c-1.224,0-2.232-1.01-2.232-2.307V19.5
					c0-1.225,1.008-2.304,2.232-2.304h52.627c1.224,0,2.304,1.008,2.304,2.304V72.127z"/>
				
					<linearGradient id="SVGID_5_" gradientUnits="userSpaceOnUse" x1="10853.4473" y1="-25755.4023" x2="10907.2402" y2="-25784.6152" gradientTransform="matrix(0.072 0 0 -0.072 -725.8463 -1811.765)">
					<stop  offset="0" style="stop-color:#A9ABAE"/>
					<stop  offset="1" style="stop-color:#FEFEFE"/>
				</linearGradient>
				<polygon fill="url(#SVGID_5_)" points="57.502,54.635 57.502,54.635 57.502,32.676 57.502,32.676 				"/>
				
					<linearGradient id="SVGID_6_" gradientUnits="userSpaceOnUse" x1="10366.9727" y1="-25532.7188" x2="10903.4756" y2="-25824.0762" gradientTransform="matrix(0.072 0 0 -0.072 -725.8463 -1811.765)">
					<stop  offset="0" style="stop-color:#41789B"/>
					<stop  offset="1" style="stop-color:#55ABDF"/>
				</linearGradient>
				<polygon fill="url(#SVGID_6_)" points="57.502,54.635 19.85,40.164 19.921,40.164 19.921,23.821 24.313,23.821 24.313,23.821 
					33.528,29.94 33.528,23.821 37.991,23.821 37.991,23.821 57.502,32.676 				"/>
				
					<linearGradient id="SVGID_7_" gradientUnits="userSpaceOnUse" x1="10649.8711" y1="-26031.9141" x2="10883.4883" y2="-26175.9199" gradientTransform="matrix(0.072 0 0 -0.072 -725.8463 -1811.765)">
					<stop  offset="0" style="stop-color:#A9ABAE"/>
					<stop  offset="1" style="stop-color:#FEFEFE"/>
				</linearGradient>
				<path fill="url(#SVGID_7_)" d="M55.27,74.434H41.087H55.27c1.225,0,2.305-1.01,2.305-2.307V60.971l0,0v11.086
					c0,1.227-1.009,2.305-2.232,2.305L55.27,74.434z"/>
				
					<linearGradient id="SVGID_8_" gradientUnits="userSpaceOnUse" x1="10372.4277" y1="-25871.4668" x2="10886.0098" y2="-26188.0508" gradientTransform="matrix(0.072 0 0 -0.072 -725.8463 -1811.765)">
					<stop  offset="0" style="stop-color:#41789B"/>
					<stop  offset="1" style="stop-color:#55ABDF"/>
				</linearGradient>
				<path fill="url(#SVGID_8_)" d="M55.27,74.434H41.087l-13.03-6.697l0,0l-7.344-16.342h1.872v-0.068l0.144,0.068l0,0l0,0
					l10.151,5.543l2.448-5.543h1.8v0.072l0,0l20.374,9.646v11.158c0,1.225-1.008,2.305-2.304,2.305L55.27,74.434z"/>
				<polygon fill="#FEFEFE" points="19.85,23.821 24.313,23.821 24.313,29.94 33.528,29.94 33.528,23.821 37.991,23.821 
					37.991,40.164 33.528,40.164 33.528,33.107 24.313,33.107 24.313,40.164 19.85,40.164 				"/>
				<polygon fill="#FEFEFE" points="13.226,46.428 45.335,46.428 45.335,45.131 13.226,45.131 				"/>
				<polygon fill="#FEFEFE" points="35.256,51.323 37.128,51.323 29.857,67.737 28.057,67.737 20.713,51.323 22.729,51.323 
					28.992,65.793 				"/>
				<polygon fill="#D2D3D5" points="81.26,67.594 83.132,67.594 83.132,24.109 81.26,24.109 				"/>
			</g>
		</g>
	</g>
</g>
<g id="visualize" display="none">
	<g id="Layer_4_1_" display="inline">
		<g id="Layer_x0020_1_4_">
			<polygon fill="#FFFFFF" points="84.062,8.928 86.221,8.928 86.221,25.99 84.062,25.99 84.062,18.287 75.206,18.287 75.206,25.99 
				73.046,25.99 73.046,8.928 75.206,8.928 75.206,16.271 84.062,16.271 			"/>
			<path fill="#FFFFFF" d="M100.332,24.191c3.455,0,6.768-2.735,6.768-6.77c0-4.032-3.24-6.769-6.768-6.769
				c-3.456,0-6.768,2.736-6.768,6.769C93.564,21.454,96.804,24.191,100.332,24.191z M100.332,8.64c5.759,0,8.999,4.535,8.999,8.782
				c0,4.177-3.24,8.782-8.999,8.782c-5.76,0-8.999-4.535-8.999-8.782S94.572,8.64,100.332,8.64z"/>
			<path fill="#FFFFFF" d="M122.866,24.191c3.454,0,6.767-2.735,6.767-6.77c0-4.032-3.238-6.769-6.767-6.769
				c-3.456,0-6.768,2.736-6.768,6.769C116.098,21.454,119.338,24.191,122.866,24.191z M122.866,8.64
				c5.759,0,8.999,4.535,8.999,8.782c0,4.177-3.24,8.782-8.999,8.782c-5.76,0-9-4.535-9-8.782S117.106,8.64,122.866,8.64z"/>
			<path fill="#FFFFFF" d="M141.656,18.287c2.592,0,4.031-1.226,4.031-3.744c0-2.447-1.514-3.744-4.031-3.744h-2.088v7.486h2.088
				V18.287z M137.408,8.928h4.68c3.6,0,5.76,2.808,5.76,5.614c0,2.88-2.16,5.615-5.76,5.615h-2.52v5.832h-2.16V8.928L137.408,8.928z
				"/>
			<path fill="#FFFFFF" d="M160.95,13.822c-0.288-2.016-1.438-3.238-3.239-3.238c-2.447,0-3.096,1.584-3.096,2.734
				c0,1.298,0.791,2.089,2.52,2.736l2.159,0.792c2.735,1.009,3.96,2.591,3.96,4.679c0,2.735-2.16,4.752-5.472,4.752
				c-3.097,0-5.255-1.655-5.543-5.041h2.159c0.217,1.873,1.15,3.168,3.526,3.168c1.871,0,3.239-1.15,3.239-2.663
				c0-1.296-1.08-2.16-2.664-2.809l-2.159-0.864c-2.521-1.008-3.813-2.446-3.813-4.68c0-2.952,2.447-4.681,5.255-4.681
				c2.808,0,5.04,1.655,5.256,5.11h-2.017h-0.071V13.822L160.95,13.822z"/>
			<polygon fill="#FFFFFF" points="82.334,33.479 84.35,33.479 78.806,48.381 77.294,48.381 71.75,33.479 73.767,33.479 
				78.014,45.358 78.086,45.358 			"/>
			<polygon fill="#FFFFFF" points="89.677,48.381 91.549,48.381 91.549,33.479 89.677,33.479 			"/>
			<path fill="#FFFFFF" d="M105.012,37.725c-0.288-1.802-1.296-2.81-2.88-2.81c-2.088,0-2.664,1.367-2.664,2.375
				c0,1.15,0.72,1.801,2.16,2.377l1.872,0.72c2.375,0.864,3.455,2.307,3.455,4.104c0,2.377-1.943,4.176-4.751,4.176
				c-2.736,0-4.608-1.438-4.896-4.393h1.871c0.145,1.654,1.008,2.732,3.096,2.732c1.656,0,2.808-1.008,2.808-2.377
				c0-1.148-0.936-1.869-2.304-2.443l-1.871-0.725c-2.232-0.859-3.313-2.156-3.313-4.104c0-2.592,2.16-4.104,4.608-4.104
				c2.447,0,4.392,1.438,4.607,4.463h-1.798V37.725L105.012,37.725z"/>
			<path fill="#FFFFFF" d="M112.715,33.479h1.872v8.926c0,2.449,1.367,4.466,3.959,4.466c2.592,0,3.96-2.017,3.96-4.466v-8.926
				h1.872v9.502c0,3.237-2.448,5.615-5.903,5.615c-3.384,0-5.832-2.447-5.832-5.615v-9.502H112.715z"/>
			<path fill="#FFFFFF" d="M136.545,35.924l-2.809,7.347h5.615L136.545,35.924z M140,44.854h-6.911l-1.368,3.453h-2.088
				l6.049-14.899h1.654l6.048,14.899h-2.088l-1.368-3.453H140z"/>
			<polygon fill="#FFFFFF" points="148.855,33.479 150.729,33.479 150.729,46.581 155.982,46.581 155.982,48.381 148.855,48.381 			
				"/>
			<polygon fill="#FFFFFF" points="161.382,48.381 163.254,48.381 163.254,33.479 161.382,33.479 			"/>
			<polygon fill="#FFFFFF" points="176.789,35.206 169.373,35.206 169.373,33.479 180.027,33.479 171.895,46.581 179.669,46.581 
				179.669,48.381 168.652,48.381 			"/>
			<polygon fill="#FFFFFF" points="185.572,33.479 193.275,33.479 193.275,35.206 187.443,35.206 187.443,39.958 193.275,39.958 
				193.275,41.686 187.443,41.686 187.443,46.581 193.275,46.581 193.275,48.381 185.572,48.381 			"/>
			<polygon fill="#FFFFFF" points="57.163,37.438 57.163,37.438 57.163,15.479 57.163,15.479 			"/>
			<path fill="#FFFFFF" d="M54.931,57.237H40.748H54.931c1.225,0,2.305-1.01,2.305-2.307V43.774l0,0V54.86
				c0,1.226-1.009,2.306-2.232,2.306L54.931,57.237z"/>
			<polygon fill="#FFFFFF" points="19.511,6.624 23.974,6.624 23.974,12.743 33.189,12.743 33.189,6.624 37.652,6.624 
				37.652,22.967 33.189,22.967 33.189,15.91 23.974,15.91 23.974,22.967 19.511,22.967 			"/>
			<polygon fill="#FFFFFF" points="12.887,29.231 44.996,29.231 44.996,27.934 12.887,27.934 			"/>
			<polygon fill="#FFFFFF" points="34.917,34.125 36.789,34.125 29.518,50.54 27.718,50.54 20.374,34.125 22.39,34.125 
				28.653,48.596 			"/>
		</g>
	</g>
</g>
<g id="publish" display="none">
	<g id="Layer_3_1_" display="inline">
		<g id="Layer_x0020_1_6_">
			<polygon fill="#FFFFFF" points="84.133,8.928 86.293,8.928 86.293,25.99 84.133,25.99 84.133,18.287 75.206,18.287 75.206,25.99 
				73.046,25.99 73.046,8.928 75.206,8.928 75.206,16.271 84.133,16.271 			"/>
			<path fill="#FFFFFF" d="M100.332,24.191c3.455,0,6.767-2.735,6.767-6.77c0-4.032-3.239-6.769-6.767-6.769
				c-3.456,0-6.768,2.736-6.768,6.769C93.564,21.454,96.804,24.191,100.332,24.191z M100.332,8.64c5.759,0,8.999,4.535,8.999,8.782
				s-3.24,8.782-8.999,8.782c-5.76,0-9-4.605-9-8.782C91.332,13.175,94.572,8.64,100.332,8.64z"/>
			<path fill="#FFFFFF" d="M122.865,24.191c3.455,0,6.768-2.735,6.768-6.77c0-4.032-3.238-6.769-6.768-6.769
				c-3.455,0-6.768,2.736-6.768,6.769C116.097,21.454,119.338,24.191,122.865,24.191z M122.865,8.64c5.76,0,8.998,4.535,8.998,8.782
				s-3.238,8.782-8.998,8.782c-5.759,0-8.999-4.605-8.999-8.782C113.866,13.175,117.106,8.64,122.865,8.64z"/>
			<path fill="#FFFFFF" d="M141.654,18.287c2.593,0,4.033-1.226,4.033-3.744c0-2.447-1.514-3.744-4.033-3.744h-2.086v7.486h2.086
				V18.287z M137.408,8.928h4.68c3.6,0,5.76,2.808,5.76,5.614c0,2.88-2.16,5.615-5.76,5.615h-2.52v5.832h-2.16V8.928L137.408,8.928z
				"/>
			<path fill="#FFFFFF" d="M160.95,13.822c-0.288-2.016-1.44-3.238-3.24-3.238c-2.446,0-3.097,1.584-3.097,2.734
				c0,1.298,0.793,2.089,2.521,2.736l2.159,0.792c2.734,1.009,3.96,2.591,3.96,4.679c0,2.735-2.16,4.752-5.472,4.752
				c-3.098,0-5.258-1.655-5.545-5.041h2.16c0.215,1.873,1.151,3.168,3.526,3.168c1.872,0,3.168-1.224,3.168-2.663
				c0-1.296-1.079-2.16-2.663-2.809l-2.16-0.864c-2.52-1.008-3.813-2.446-3.813-4.68c0-2.952,2.446-4.681,5.255-4.681
				s5.04,1.655,5.256,5.11h-2.016L160.95,13.822L160.95,13.822z"/>
			<path fill="#FFFFFF" d="M76.574,41.615c2.231,0,3.527-1.08,3.527-3.24s-1.296-3.24-3.527-3.24h-1.872v6.555h1.872V41.615z
				 M72.83,33.407h4.104c3.168,0,5.04,2.446,5.04,4.895c0,2.521-1.872,4.896-5.04,4.896h-2.231v5.108h-1.872L72.83,33.407
				L72.83,33.407z"/>
			<path fill="#FFFFFF" d="M87.517,33.479h1.872v8.926c0,2.449,1.368,4.466,3.96,4.466c2.592,0,3.959-2.017,3.959-4.466v-8.926
				h1.872v9.502c0,3.237-2.448,5.615-5.903,5.615c-3.384,0-5.832-2.447-5.832-5.615v-9.502H87.517z"/>
			<path fill="#FFFFFF" d="M110.411,46.723c2.52,0,3.239-1.224,3.239-2.521c0-1.152-0.72-2.594-3.239-2.594h-2.88v5.111
				L110.411,46.723L110.411,46.723z M109.906,39.958c1.513,0,2.736-0.861,2.736-2.306c0-0.791-0.288-1.366-0.72-1.799
				c-0.504-0.435-1.225-0.722-2.376-0.722h-2.016v4.822h2.376V39.958L109.906,39.958z M105.659,33.479h3.888
				c1.439,0,2.447,0.215,3.384,0.86c0.936,0.646,1.584,1.729,1.584,3.24c0,1.365-0.721,2.375-1.872,2.95v0.071
				c1.872,0.287,2.88,1.801,2.88,3.602c0,2.445-2.016,4.248-4.464,4.248h-5.399V33.549L105.659,33.479L105.659,33.479z"/>
			<polygon fill="#FFFFFF" points="121.498,33.479 123.441,33.479 123.441,46.581 128.625,46.581 128.625,48.381 121.498,48.381 			
				"/>
			<polygon fill="#FFFFFF" points="134.023,48.381 135.896,48.381 135.896,33.479 134.023,33.479 			"/>
			<path fill="#FFFFFF" d="M149.359,37.725c-0.289-1.729-1.297-2.81-2.881-2.81c-2.088,0-2.664,1.367-2.664,2.445
				c0,1.152,0.721,1.803,2.16,2.378l1.873,0.72c2.375,0.865,3.453,2.306,3.453,4.104c0,2.445-1.941,4.178-4.751,4.178
				c-2.735,0-4.606-1.439-4.896-4.395h1.873c0.145,1.654,1.008,2.732,3.096,2.732c1.656,0,2.809-1.009,2.809-2.375
				c0-1.15-0.937-1.871-2.305-2.447l-1.871-0.721c-2.232-0.863-3.313-2.16-3.313-4.104c0-2.593,2.16-4.104,4.606-4.104
				c2.447,0,4.394,1.438,4.607,4.463h-1.729L149.359,37.725z"/>
			<polygon fill="#FFFFFF" points="166.781,33.479 168.652,33.479 168.652,48.381 166.781,48.381 166.781,41.615 159.006,41.615 
				159.006,48.381 157.135,48.381 157.135,33.479 159.006,33.479 159.006,39.883 166.781,39.883 			"/>
			<polygon fill="#FFFFFF" points="19.51,6.624 23.974,6.624 23.974,12.743 33.188,12.743 33.188,6.624 37.652,6.624 37.652,22.967 
				33.188,22.967 33.188,15.91 23.974,15.91 23.974,22.967 19.51,22.967 			"/>
			<polygon fill="#FFFFFF" points="12.887,29.231 44.996,29.231 44.996,27.934 12.887,27.934 			"/>
			<path fill="#FFFFFF" d="M24.046,42.118h6.551c2.809,0,3.672-1.298,3.672-3.24c0-2.445-1.367-3.168-3.312-3.168h-6.911v6.336
				V42.118z M22.318,34.198h8.854c2.52,0,4.896,1.297,4.896,4.752c0,3.096-2.016,4.752-5.688,4.752h-6.335v6.909h-1.728V34.27
				L22.318,34.198L22.318,34.198z"/>
		</g>
	</g>
</g>
<g id="exchange" display="none">
	<g id="Layer_x0020_1_5_" display="inline">
		<polygon fill="#FFFFFF" points="84.133,8.928 86.293,8.928 86.293,25.99 84.133,25.99 84.133,18.287 75.206,18.287 75.206,25.99 
			73.046,25.99 73.046,8.928 75.206,8.928 75.206,16.271 84.133,16.271 		"/>
		<path fill="#FFFFFF" d="M100.332,24.191c3.455,0,6.767-2.735,6.767-6.77c0-4.032-3.239-6.769-6.767-6.769
			c-3.456,0-6.768,2.736-6.768,6.769C93.564,21.454,96.804,24.191,100.332,24.191z M100.332,8.64c5.759,0,8.999,4.535,8.999,8.782
			s-3.24,8.782-8.999,8.782c-5.76,0-8.999-4.535-8.999-8.782S94.572,8.64,100.332,8.64z"/>
		<path fill="#FFFFFF" d="M122.865,24.191c3.455,0,6.768-2.735,6.768-6.77c0-4.032-3.238-6.769-6.768-6.769
			c-3.455,0-6.767,2.736-6.767,6.769C116.098,21.454,119.338,24.191,122.865,24.191z M122.865,8.64c5.76,0,9,4.535,9,8.782
			s-3.24,8.782-9,8.782c-5.759,0-8.999-4.535-8.999-8.782S117.106,8.64,122.865,8.64z"/>
		<path fill="#FFFFFF" d="M141.656,18.287c2.592,0,4.031-1.226,4.031-3.744c0-2.447-1.514-3.744-4.031-3.744h-2.088v7.486h2.088
			V18.287z M137.408,8.928h4.68c3.6,0,5.76,2.808,5.76,5.614c0,2.88-2.16,5.615-5.76,5.615h-2.52v5.832h-2.16V8.928L137.408,8.928z"
			/>
		<path fill="#FFFFFF" d="M160.95,13.822c-0.288-2.016-1.44-3.238-3.24-3.238c-2.446,0-3.097,1.584-3.097,2.734
			c0,1.298,0.793,2.089,2.521,2.736l2.159,0.792c2.734,1.009,3.96,2.591,3.96,4.679c0,2.735-2.16,4.752-5.472,4.752
			c-3.098,0-5.256-1.655-5.545-5.041h2.16c0.215,1.873,1.151,3.168,3.527,3.168c1.871,0,3.239-1.224,3.239-2.663
			c0-1.296-1.08-2.16-2.664-2.809l-2.159-0.864c-2.52-1.008-3.814-2.446-3.814-4.68c0-2.952,2.447-4.681,5.256-4.681
			c2.808,0,5.039,1.655,5.256,5.11h-2.018h-0.07L160.95,13.822L160.95,13.822z"/>
		<polygon fill="#FFFFFF" points="72.83,33.479 80.533,33.479 80.533,35.206 74.702,35.206 74.702,39.958 80.533,39.958 
			80.533,41.686 74.702,41.686 74.702,46.581 80.533,46.581 80.533,48.381 72.83,48.381 		"/>
		<polygon fill="#FFFFFF" points="95.58,33.479 97.884,33.479 92.916,40.749 98.1,48.381 95.725,48.381 91.765,42.333 
			87.805,48.381 85.429,48.381 90.612,40.749 85.646,33.479 87.949,33.479 91.765,39.237 		"/>
		<path fill="#FFFFFF" d="M114.73,36.502c-1.08-0.938-2.376-1.512-3.815-1.512c-3.096,0-5.903,2.52-5.903,5.898
			c0,3.457,2.879,5.902,5.903,5.902c1.655,0,2.951-0.576,3.959-1.584l1.225,1.367c-1.368,1.225-3.313,2.019-5.184,2.019
			c-5.04,0-7.92-4.03-7.92-7.704c0-3.671,2.88-7.701,7.92-7.701c1.943,0,3.888,0.793,5.111,1.871l-1.296,1.365V36.502z"/>
		<polygon fill="#FFFFFF" points="131.217,33.479 133.089,33.479 133.089,48.381 131.217,48.381 131.217,41.615 123.441,41.615 
			123.441,48.381 121.498,48.381 121.498,33.479 123.441,33.479 123.441,39.883 131.217,39.883 		"/>
		<path fill="#FFFFFF" d="M145.327,35.924l-2.808,7.347h5.614L145.327,35.924z M148.783,44.854h-6.911l-1.368,3.453h-2.088
			l6.048-14.899h1.655l6.048,14.899h-2.088l-1.368-3.453H148.783z"/>
		<polygon fill="#FFFFFF" points="167.357,33.479 169.229,33.479 169.229,48.381 167.43,48.381 159.438,36.862 159.438,36.862 
			159.438,48.381 157.566,48.381 157.566,33.479 159.294,33.479 167.285,44.997 167.357,44.997 		"/>
		<path fill="#FFFFFF" d="M183.484,40.174h7.486c0,5.326-3.674,8.423-7.85,8.423c-5.04,0-7.918-4.031-7.918-7.703
			s2.88-7.703,7.918-7.703c1.729,0,3.457,0.504,5.256,2.017l-1.227,1.44c-1.227-1.151-2.732-1.655-4.029-1.655
			c-3.098,0-5.904,2.521-5.904,5.901c0,3.455,2.881,5.903,5.904,5.903c2.664,0,5.186-1.801,5.832-4.896h-5.475v-1.799v0.071
			L183.484,40.174L183.484,40.174z"/>
		<polygon fill="#FFFFFF" points="196.945,33.479 204.65,33.479 204.65,35.206 198.818,35.206 198.818,39.958 204.65,39.958 
			204.65,41.686 198.818,41.686 198.818,46.581 204.65,46.581 204.65,48.381 196.945,48.381 		"/>
		<polygon fill="#FFFFFF" points="19.511,6.624 23.974,6.624 23.974,12.743 33.189,12.743 33.189,6.624 37.652,6.624 37.652,22.967 
			33.189,22.967 33.189,15.91 23.974,15.91 23.974,22.967 19.511,22.967 		"/>
		<polygon fill="#FFFFFF" points="12.887,29.231 44.996,29.231 44.996,27.934 12.887,27.934 		"/>
		<polygon fill="#FFFFFF" points="22.534,34.125 35.564,34.125 35.564,35.709 24.262,35.709 24.262,41.252 35.133,41.252 
			35.133,42.836 24.262,42.836 24.262,48.958 35.709,48.958 35.709,50.54 22.534,50.54 		"/>
	</g>
</g>
</svg>
